<?xml version="1.0" standalone="no"?>
<!DOCTYPE svg PUBLIC "-//W3C//DTD SVG 20010904//EN"
 "http://www.w3.org/TR/2001/REC-SVG-20010904/DTD/svg10.dtd">
<svg version="1.0" xmlns="http://www.w3.org/2000/svg"
 width="528.000000pt" height="528.000000pt" viewBox="0 0 528.000000 528.000000"
 preserveAspectRatio="xMidYMid meet">
<metadata>
Created by potrace 1.11, written by Peter Selinger 2001-2013
</metadata>
<g transform="translate(0.000000,528.000000) scale(0.100000,-0.100000)"
fill="#000000" stroke="none">
<path d="M2527 3344 c-1 -1 -69 -5 -152 -9 -82 -3 -163 -8 -180 -10 -16 -2
-61 -6 -100 -10 -70 -6 -277 -31 -325 -39 -14 -3 -43 -7 -65 -10 -22 -4 -62
-11 -90 -16 -27 -5 -61 -12 -75 -14 -444 -82 -900 -225 -1295 -405 -82 -37
-111 -55 -113 -71 -3 -16 2 -20 25 -21 35 -1 73 -7 93 -16 8 -3 23 -8 33 -9
10 -2 32 -10 50 -17 17 -8 35 -15 39 -16 37 -10 182 -83 181 -90 -2 -6 3 -8
10 -5 17 6 160 -60 150 -70 -4 -4 0 -4 9 -1 8 3 22 -1 31 -9 8 -8 17 -13 20
-10 3 4 27 -5 54 -19 26 -14 63 -30 80 -37 18 -7 31 -15 29 -19 -2 -3 7 -7 21
-8 14 0 29 -7 34 -15 5 -7 9 -10 9 -6 0 6 35 -5 95 -32 11 -4 34 -14 52 -21
17 -7 30 -16 28 -19 -2 -3 10 -6 26 -7 16 -1 39 -8 51 -15 13 -7 26 -13 31
-14 4 -1 9 -3 12 -4 7 -3 22 -7 36 -9 5 0 7 -5 4 -11 -3 -5 0 -8 7 -5 18 7
190 -49 181 -59 -4 -4 0 -4 9 -1 10 4 33 1 53 -5 41 -14 62 -18 88 -19 11 -1
15 -6 11 -13 -4 -7 -3 -8 5 -4 6 4 35 3 64 -3 28 -6 75 -13 102 -17 28 -3 56
-11 63 -16 6 -6 12 -6 12 -1 0 5 23 7 53 3 44 -5 202 -5 202 0 0 1 14 3 30 5
82 11 104 16 159 34 32 12 63 18 69 14 6 -3 7 -1 3 5 -6 11 6 16 27 13 4 0 7
4 7 9 0 6 5 10 11 10 6 0 29 13 52 29 38 26 43 27 57 13 8 -9 15 -20 15 -23 0
-4 4 -11 9 -16 5 -5 6 -3 2 5 -4 7 -1 12 8 12 8 0 16 -4 18 -8 2 -5 49 -31
105 -59 56 -28 101 -52 98 -54 -2 -2 9 -5 23 -5 15 -1 45 -7 67 -13 22 -7 46
-13 53 -13 6 -1 12 -4 12 -8 0 -4 11 -5 25 -2 14 2 31 0 38 -6 8 -7 18 -7 27
-2 8 5 18 6 23 3 21 -13 203 1 311 23 19 4 31 1 37 -7 7 -11 9 -10 9 4 0 12 7
17 18 16 9 -1 25 1 35 6 9 4 24 4 33 1 9 -3 12 -2 9 5 -4 6 -1 9 6 8 8 -1 21
0 29 3 18 6 198 58 221 63 8 2 33 10 54 19 21 9 45 14 52 11 8 -2 11 0 8 5 -6
9 10 14 42 13 7 -1 10 3 7 8 -3 5 1 9 8 9 8 0 50 15 95 34 45 19 84 32 87 29
3 -4 6 -2 6 4 0 6 15 16 33 23 17 7 58 25 90 41 31 16 57 26 57 21 0 -4 4 -2
8 3 13 18 53 36 65 29 7 -4 9 -3 4 1 -4 5 32 28 80 53 48 24 113 58 143 76 30
17 78 43 105 56 28 14 52 28 55 31 3 3 44 27 91 52 68 37 88 44 98 34 10 -9
11 -9 6 4 -4 12 5 20 37 32 24 8 52 17 63 19 11 2 21 10 23 19 3 19 -97 66
-340 158 -148 56 -398 138 -475 156 -10 2 -52 13 -93 24 -75 21 -368 86 -425
95 -16 3 -47 8 -69 11 -21 4 -48 9 -60 11 -11 2 -39 7 -61 10 -22 2 -51 7 -65
9 -51 8 -187 24 -255 30 -38 4 -86 8 -105 10 -108 12 -663 27 -673 19z m-48
-258 c9 -6 12 -5 8 2 -5 7 52 10 184 10 170 0 188 -2 170 -15 -12 -8 -26 -11
-31 -8 -6 3 -10 2 -10 -3 0 -5 -17 -21 -37 -34 -111 -74 -193 -175 -245 -302
-63 -153 -98 -201 -185 -250 -83 -48 -134 -58 -303 -61 -166 -3 -247 6 -465
52 -66 14 -127 26 -136 28 -34 7 -265 70 -464 127 -251 71 -381 107 -415 114
-14 3 -50 12 -81 20 -31 7 -66 14 -78 14 -27 0 -27 16 -1 23 11 3 20 0 20 -6
0 -9 2 -9 8 -1 9 15 227 68 253 61 10 -3 17 -1 13 4 -3 5 -2 9 3 10 10 1 25 4
98 20 84 18 86 18 125 24 19 2 50 9 68 14 17 5 32 8 32 5 0 -3 9 0 19 6 14 7
22 7 27 -1 5 -8 8 -8 13 0 4 6 24 13 45 15 21 3 46 8 55 10 9 3 36 8 61 11 25
4 65 10 90 15 71 13 161 24 212 24 25 1 44 5 41 10 -3 4 13 7 36 4 22 -2 41 0
41 4 0 5 12 8 28 7 15 0 59 3 97 9 73 10 90 8 79 -10 -4 -7 -2 -8 5 -4 6 4 9
11 6 16 -2 4 6 10 20 12 14 3 25 1 25 -4 0 -5 5 -6 10 -3 16 10 47 14 145 19
50 3 105 8 124 11 26 5 31 4 25 -7 -6 -10 -4 -10 9 1 14 11 17 11 17 0 0 -10
2 -11 8 -2 12 18 205 26 231 9z m1414 -157 c72 -2 117 -7 117 -14 0 -5 4 -4 9
4 5 8 11 9 15 3 3 -5 17 -7 31 -4 14 2 33 -2 42 -9 9 -8 14 -9 10 -3 -8 14
102 6 121 -8 6 -6 12 -6 12 -2 0 5 39 5 90 0 49 -5 87 -12 85 -16 -2 -4 2 -7
10 -7 8 0 15 4 15 9 0 5 6 6 13 1 6 -4 28 -8 47 -9 53 -3 153 -15 160 -19 3
-2 27 -5 53 -6 26 -2 47 -6 47 -10 0 -4 12 -6 26 -3 14 3 23 1 21 -3 -3 -5 12
-7 34 -5 21 2 39 0 39 -4 0 -5 17 -9 38 -10 68 -1 112 -8 103 -17 -4 -4 -18
-9 -30 -10 -11 -1 -21 -6 -21 -11 0 -5 -3 -7 -6 -3 -3 3 -22 -3 -42 -13 -21
-10 -71 -32 -112 -50 -41 -17 -93 -40 -115 -50 -262 -118 -768 -288 -943 -316
-15 -2 -38 -7 -52 -10 -26 -6 -40 -8 -105 -18 -22 -3 -65 -9 -95 -13 -30 -4
-127 -8 -215 -8 -149 0 -166 2 -238 28 -72 25 -175 81 -222 119 -11 9 -30 25
-42 35 l-23 18 25 68 c14 38 32 81 40 97 19 37 103 120 121 120 8 0 14 4 14 8
0 12 62 40 158 72 52 18 82 24 82 16 0 -8 2 -8 8 0 11 18 40 24 187 40 22 2
45 6 52 9 7 2 15 0 19 -6 3 -6 10 -6 17 -1 7 5 55 10 107 11 52 1 96 3 97 4 1
1 19 2 40 0 21 -1 91 -3 156 -4z"/>
<path d="M2016 3033 c-6 -14 -5 -15 5 -6 7 7 10 15 7 18 -3 3 -9 -2 -12 -12z"/>
<path d="M4650 2826 c0 -2 7 -7 16 -10 8 -3 12 -2 9 4 -6 10 -25 14 -25 6z"/>
<path d="M4760 2800 c-9 -6 -10 -10 -3 -10 6 0 15 5 18 10 8 12 4 12 -15 0z"/>
<path d="M2870 2686 c0 -2 7 -7 16 -10 8 -3 12 -2 9 4 -6 10 -25 14 -25 6z"/>
<path d="M256 2687 c3 -10 9 -15 12 -12 3 3 0 11 -7 18 -10 9 -11 8 -5 -6z"/>
<path d="M2570 2219 c0 -5 5 -7 10 -4 6 3 10 8 10 11 0 2 -4 4 -10 4 -5 0 -10
-5 -10 -11z"/>
</g>
</svg>
